<mxfile host="app.diagrams.net" agent="Mozilla/5.0 (Windows NT 10.0; Win64; x64) AppleWebKit/537.36 (KHTML, like Gecko) Chrome/124.0.0.0 Safari/537.36 SLBrowser/9.0.6.5061 SLBChan/105 SLBVPV/64-bit" version="27.0.6" pages="2">
  <diagram id="C5RBs43oDa-KdzZeNtuy" name="Page-1">
    <mxGraphModel dx="2727" dy="1734" grid="1" gridSize="10" guides="1" tooltips="1" connect="1" arrows="1" fold="1" page="1" pageScale="1" pageWidth="827" pageHeight="1169" math="0" shadow="0">
      <root>
        <mxCell id="WIyWlLk6GJQsqaUBKTNV-0" />
        <mxCell id="WIyWlLk6GJQsqaUBKTNV-1" parent="WIyWlLk6GJQsqaUBKTNV-0" />
        <mxCell id="X22tkPTB33_4y0BBEfyO-1" value="用户" style="text;html=1;align=center;verticalAlign=middle;resizable=0;points=[];autosize=1;strokeColor=none;fillColor=none;" parent="WIyWlLk6GJQsqaUBKTNV-1" vertex="1">
          <mxGeometry x="-1654" y="-1130" width="50" height="30" as="geometry" />
        </mxCell>
        <mxCell id="X22tkPTB33_4y0BBEfyO-4" value="" style="edgeStyle=none;orthogonalLoop=1;jettySize=auto;html=1;rounded=0;" parent="WIyWlLk6GJQsqaUBKTNV-1" edge="1">
          <mxGeometry width="100" relative="1" as="geometry">
            <mxPoint x="-1610" y="-1115.29" as="sourcePoint" />
            <mxPoint x="-1550" y="-1115" as="targetPoint" />
            <Array as="points" />
          </mxGeometry>
        </mxCell>
        <mxCell id="X22tkPTB33_4y0BBEfyO-8" style="edgeStyle=orthogonalEdgeStyle;rounded=0;orthogonalLoop=1;jettySize=auto;html=1;exitX=1;exitY=0.5;exitDx=0;exitDy=0;" parent="WIyWlLk6GJQsqaUBKTNV-1" source="X22tkPTB33_4y0BBEfyO-5" edge="1">
          <mxGeometry relative="1" as="geometry">
            <mxPoint x="-1460" y="-1114.857142857143" as="targetPoint" />
          </mxGeometry>
        </mxCell>
        <mxCell id="X22tkPTB33_4y0BBEfyO-5" value="&lt;font style=&quot;font-size: 6px;&quot;&gt;游览器发送请求&lt;/font&gt;" style="ellipse;whiteSpace=wrap;html=1;" parent="WIyWlLk6GJQsqaUBKTNV-1" vertex="1">
          <mxGeometry x="-1580" y="-1140" width="80" height="50" as="geometry" />
        </mxCell>
        <mxCell id="X22tkPTB33_4y0BBEfyO-10" style="edgeStyle=orthogonalEdgeStyle;rounded=0;orthogonalLoop=1;jettySize=auto;html=1;exitX=1;exitY=0.5;exitDx=0;exitDy=0;" parent="WIyWlLk6GJQsqaUBKTNV-1" source="X22tkPTB33_4y0BBEfyO-9" edge="1">
          <mxGeometry relative="1" as="geometry">
            <mxPoint x="-1330" y="-1114.857142857143" as="targetPoint" />
          </mxGeometry>
        </mxCell>
        <mxCell id="X22tkPTB33_4y0BBEfyO-11" value="是" style="edgeLabel;html=1;align=center;verticalAlign=middle;resizable=0;points=[];" parent="X22tkPTB33_4y0BBEfyO-10" vertex="1" connectable="0">
          <mxGeometry x="-0.2467" y="2" relative="1" as="geometry">
            <mxPoint as="offset" />
          </mxGeometry>
        </mxCell>
        <mxCell id="X22tkPTB33_4y0BBEfyO-18" style="edgeStyle=orthogonalEdgeStyle;rounded=0;orthogonalLoop=1;jettySize=auto;html=1;" parent="WIyWlLk6GJQsqaUBKTNV-1" source="X22tkPTB33_4y0BBEfyO-9" edge="1">
          <mxGeometry relative="1" as="geometry">
            <mxPoint x="-1415.34" y="-980" as="targetPoint" />
            <mxPoint x="-1415.34" y="-1060" as="sourcePoint" />
          </mxGeometry>
        </mxCell>
        <mxCell id="X22tkPTB33_4y0BBEfyO-19" value="否" style="edgeLabel;html=1;align=center;verticalAlign=middle;resizable=0;points=[];" parent="X22tkPTB33_4y0BBEfyO-18" vertex="1" connectable="0">
          <mxGeometry x="-0.0325" relative="1" as="geometry">
            <mxPoint as="offset" />
          </mxGeometry>
        </mxCell>
        <mxCell id="X22tkPTB33_4y0BBEfyO-9" value="&lt;font style=&quot;font-size: 8px;&quot;&gt;判断是否有缓存&lt;/font&gt;" style="rhombus;whiteSpace=wrap;html=1;" parent="WIyWlLk6GJQsqaUBKTNV-1" vertex="1">
          <mxGeometry x="-1460" y="-1140" width="90" height="50" as="geometry" />
        </mxCell>
        <mxCell id="X22tkPTB33_4y0BBEfyO-13" style="edgeStyle=orthogonalEdgeStyle;rounded=0;orthogonalLoop=1;jettySize=auto;html=1;" parent="WIyWlLk6GJQsqaUBKTNV-1" source="X22tkPTB33_4y0BBEfyO-12" edge="1">
          <mxGeometry relative="1" as="geometry">
            <mxPoint x="-1160" y="-1115" as="targetPoint" />
          </mxGeometry>
        </mxCell>
        <mxCell id="X22tkPTB33_4y0BBEfyO-14" value="否" style="edgeLabel;html=1;align=center;verticalAlign=middle;resizable=0;points=[];" parent="X22tkPTB33_4y0BBEfyO-13" vertex="1" connectable="0">
          <mxGeometry x="-0.2793" y="-1" relative="1" as="geometry">
            <mxPoint as="offset" />
          </mxGeometry>
        </mxCell>
        <mxCell id="X22tkPTB33_4y0BBEfyO-31" value="" style="edgeStyle=orthogonalEdgeStyle;rounded=0;orthogonalLoop=1;jettySize=auto;html=1;entryX=0.5;entryY=0;entryDx=0;entryDy=0;" parent="WIyWlLk6GJQsqaUBKTNV-1" source="X22tkPTB33_4y0BBEfyO-12" target="X22tkPTB33_4y0BBEfyO-24" edge="1">
          <mxGeometry relative="1" as="geometry" />
        </mxCell>
        <mxCell id="X22tkPTB33_4y0BBEfyO-32" value="是" style="edgeLabel;html=1;align=center;verticalAlign=middle;resizable=0;points=[];" parent="X22tkPTB33_4y0BBEfyO-31" vertex="1" connectable="0">
          <mxGeometry x="-0.1264" y="-1" relative="1" as="geometry">
            <mxPoint as="offset" />
          </mxGeometry>
        </mxCell>
        <mxCell id="X22tkPTB33_4y0BBEfyO-12" value="&lt;font style=&quot;font-size: 8px;&quot;&gt;判断缓存是否过期&lt;/font&gt;" style="rhombus;whiteSpace=wrap;html=1;" parent="WIyWlLk6GJQsqaUBKTNV-1" vertex="1">
          <mxGeometry x="-1320" y="-1140" width="110" height="50" as="geometry" />
        </mxCell>
        <mxCell id="X22tkPTB33_4y0BBEfyO-16" style="edgeStyle=orthogonalEdgeStyle;rounded=0;orthogonalLoop=1;jettySize=auto;html=1;exitX=0.5;exitY=0;exitDx=0;exitDy=0;" parent="WIyWlLk6GJQsqaUBKTNV-1" source="X22tkPTB33_4y0BBEfyO-15" target="X22tkPTB33_4y0BBEfyO-17" edge="1">
          <mxGeometry relative="1" as="geometry">
            <mxPoint x="-1040" y="-800" as="targetPoint" />
            <Array as="points">
              <mxPoint x="-1115" y="-1150" />
              <mxPoint x="-870" y="-1150" />
            </Array>
          </mxGeometry>
        </mxCell>
        <mxCell id="X22tkPTB33_4y0BBEfyO-15" value="&lt;font style=&quot;font-size: 8px;&quot;&gt;从缓存中获取数据&lt;/font&gt;" style="rounded=0;whiteSpace=wrap;html=1;" parent="WIyWlLk6GJQsqaUBKTNV-1" vertex="1">
          <mxGeometry x="-1160" y="-1130" width="90" height="40" as="geometry" />
        </mxCell>
        <mxCell id="X22tkPTB33_4y0BBEfyO-17" value="展示给用户" style="shape=umlActor;verticalLabelPosition=bottom;verticalAlign=top;html=1;outlineConnect=0;" parent="WIyWlLk6GJQsqaUBKTNV-1" vertex="1">
          <mxGeometry x="-890" y="-720" width="20" height="50" as="geometry" />
        </mxCell>
        <mxCell id="X22tkPTB33_4y0BBEfyO-21" style="edgeStyle=orthogonalEdgeStyle;rounded=0;orthogonalLoop=1;jettySize=auto;html=1;" parent="WIyWlLk6GJQsqaUBKTNV-1" source="X22tkPTB33_4y0BBEfyO-20" target="X22tkPTB33_4y0BBEfyO-22" edge="1">
          <mxGeometry relative="1" as="geometry">
            <mxPoint x="-1410" y="-910" as="targetPoint" />
          </mxGeometry>
        </mxCell>
        <mxCell id="X22tkPTB33_4y0BBEfyO-20" value="&lt;font style=&quot;font-size: 9px;&quot;&gt;向web服务器发送请求&lt;/font&gt;" style="rounded=0;whiteSpace=wrap;html=1;" parent="WIyWlLk6GJQsqaUBKTNV-1" vertex="1">
          <mxGeometry x="-1450" y="-980" width="80" height="40" as="geometry" />
        </mxCell>
        <mxCell id="X22tkPTB33_4y0BBEfyO-53" style="edgeStyle=orthogonalEdgeStyle;rounded=0;orthogonalLoop=1;jettySize=auto;html=1;exitX=0.5;exitY=1;exitDx=0;exitDy=0;" parent="WIyWlLk6GJQsqaUBKTNV-1" source="X22tkPTB33_4y0BBEfyO-22" edge="1">
          <mxGeometry relative="1" as="geometry">
            <mxPoint x="-900" y="-670" as="targetPoint" />
            <Array as="points">
              <mxPoint x="-1410" y="-670" />
            </Array>
          </mxGeometry>
        </mxCell>
        <mxCell id="X22tkPTB33_4y0BBEfyO-22" value="请求响应，缓存协商" style="rounded=0;whiteSpace=wrap;html=1;" parent="WIyWlLk6GJQsqaUBKTNV-1" vertex="1">
          <mxGeometry x="-1462.5" y="-800" width="105" height="50" as="geometry" />
        </mxCell>
        <mxCell id="X22tkPTB33_4y0BBEfyO-33" style="edgeStyle=orthogonalEdgeStyle;rounded=0;orthogonalLoop=1;jettySize=auto;html=1;exitX=0;exitY=0.5;exitDx=0;exitDy=0;entryX=1;entryY=0.5;entryDx=0;entryDy=0;" parent="WIyWlLk6GJQsqaUBKTNV-1" target="X22tkPTB33_4y0BBEfyO-20" edge="1">
          <mxGeometry relative="1" as="geometry">
            <mxPoint x="-1342.5" y="-960" as="targetPoint" />
            <mxPoint x="-1320" y="-1010" as="sourcePoint" />
            <Array as="points">
              <mxPoint x="-1341" y="-1010" />
              <mxPoint x="-1341" y="-960" />
            </Array>
          </mxGeometry>
        </mxCell>
        <mxCell id="X22tkPTB33_4y0BBEfyO-37" value="否" style="edgeLabel;html=1;align=center;verticalAlign=middle;resizable=0;points=[];" parent="X22tkPTB33_4y0BBEfyO-33" vertex="1" connectable="0">
          <mxGeometry x="-0.7303" y="-3" relative="1" as="geometry">
            <mxPoint as="offset" />
          </mxGeometry>
        </mxCell>
        <mxCell id="X22tkPTB33_4y0BBEfyO-51" style="edgeStyle=orthogonalEdgeStyle;rounded=0;orthogonalLoop=1;jettySize=auto;html=1;exitX=0.5;exitY=1;exitDx=0;exitDy=0;entryX=0.5;entryY=0;entryDx=0;entryDy=0;" parent="WIyWlLk6GJQsqaUBKTNV-1" source="X22tkPTB33_4y0BBEfyO-24" target="X22tkPTB33_4y0BBEfyO-27" edge="1">
          <mxGeometry relative="1" as="geometry" />
        </mxCell>
        <mxCell id="X22tkPTB33_4y0BBEfyO-24" value="&lt;font style=&quot;font-size: 9px;&quot;&gt;判断Etag&lt;/font&gt;" style="rhombus;whiteSpace=wrap;html=1;" parent="WIyWlLk6GJQsqaUBKTNV-1" vertex="1">
          <mxGeometry x="-1317.5" y="-1050" width="105" height="80" as="geometry" />
        </mxCell>
        <mxCell id="X22tkPTB33_4y0BBEfyO-41" style="edgeStyle=orthogonalEdgeStyle;rounded=0;orthogonalLoop=1;jettySize=auto;html=1;exitX=1;exitY=0.5;exitDx=0;exitDy=0;entryX=0;entryY=0.5;entryDx=0;entryDy=0;" parent="WIyWlLk6GJQsqaUBKTNV-1" source="X22tkPTB33_4y0BBEfyO-26" target="X22tkPTB33_4y0BBEfyO-30" edge="1">
          <mxGeometry relative="1" as="geometry">
            <mxPoint x="-1030" y="-970" as="targetPoint" />
          </mxGeometry>
        </mxCell>
        <mxCell id="X22tkPTB33_4y0BBEfyO-26" value="&lt;font style=&quot;font-size: 9px;&quot;&gt;向web服务器请求带&lt;/font&gt;&lt;div&gt;&lt;font style=&quot;font-size: 9px;&quot;&gt;if-None-Match&lt;/font&gt;&lt;/div&gt;" style="rounded=0;whiteSpace=wrap;html=1;" parent="WIyWlLk6GJQsqaUBKTNV-1" vertex="1">
          <mxGeometry x="-1155" y="-1050" width="95" height="60" as="geometry" />
        </mxCell>
        <mxCell id="X22tkPTB33_4y0BBEfyO-35" style="edgeStyle=orthogonalEdgeStyle;rounded=0;orthogonalLoop=1;jettySize=auto;html=1;entryX=1;entryY=0.5;entryDx=0;entryDy=0;" parent="WIyWlLk6GJQsqaUBKTNV-1" source="X22tkPTB33_4y0BBEfyO-27" target="X22tkPTB33_4y0BBEfyO-20" edge="1">
          <mxGeometry relative="1" as="geometry">
            <mxPoint x="-1340" y="-960" as="targetPoint" />
          </mxGeometry>
        </mxCell>
        <mxCell id="X22tkPTB33_4y0BBEfyO-36" value="否" style="edgeLabel;html=1;align=center;verticalAlign=middle;resizable=0;points=[];" parent="X22tkPTB33_4y0BBEfyO-35" vertex="1" connectable="0">
          <mxGeometry x="-0.5824" y="-1" relative="1" as="geometry">
            <mxPoint as="offset" />
          </mxGeometry>
        </mxCell>
        <mxCell id="X22tkPTB33_4y0BBEfyO-46" style="edgeStyle=orthogonalEdgeStyle;rounded=0;orthogonalLoop=1;jettySize=auto;html=1;exitX=1;exitY=0.5;exitDx=0;exitDy=0;entryX=0;entryY=0.5;entryDx=0;entryDy=0;" parent="WIyWlLk6GJQsqaUBKTNV-1" source="X22tkPTB33_4y0BBEfyO-27" target="X22tkPTB33_4y0BBEfyO-29" edge="1">
          <mxGeometry relative="1" as="geometry" />
        </mxCell>
        <mxCell id="X22tkPTB33_4y0BBEfyO-47" value="是" style="edgeLabel;html=1;align=center;verticalAlign=middle;resizable=0;points=[];" parent="X22tkPTB33_4y0BBEfyO-46" vertex="1" connectable="0">
          <mxGeometry x="-0.3485" y="2" relative="1" as="geometry">
            <mxPoint as="offset" />
          </mxGeometry>
        </mxCell>
        <mxCell id="X22tkPTB33_4y0BBEfyO-27" value="&lt;font style=&quot;font-size: 10px;&quot;&gt;判断Last-Modified&lt;/font&gt;" style="rhombus;whiteSpace=wrap;html=1;" parent="WIyWlLk6GJQsqaUBKTNV-1" vertex="1">
          <mxGeometry x="-1305" y="-940" width="80" height="70" as="geometry" />
        </mxCell>
        <mxCell id="X22tkPTB33_4y0BBEfyO-28" style="edgeStyle=orthogonalEdgeStyle;rounded=0;orthogonalLoop=1;jettySize=auto;html=1;exitX=0.5;exitY=1;exitDx=0;exitDy=0;" parent="WIyWlLk6GJQsqaUBKTNV-1" source="X22tkPTB33_4y0BBEfyO-24" target="X22tkPTB33_4y0BBEfyO-24" edge="1">
          <mxGeometry relative="1" as="geometry" />
        </mxCell>
        <mxCell id="X22tkPTB33_4y0BBEfyO-43" style="edgeStyle=orthogonalEdgeStyle;rounded=0;orthogonalLoop=1;jettySize=auto;html=1;entryX=0;entryY=0.5;entryDx=0;entryDy=0;" parent="WIyWlLk6GJQsqaUBKTNV-1" source="X22tkPTB33_4y0BBEfyO-29" target="X22tkPTB33_4y0BBEfyO-30" edge="1">
          <mxGeometry relative="1" as="geometry">
            <mxPoint x="-1030" y="-970" as="targetPoint" />
          </mxGeometry>
        </mxCell>
        <mxCell id="X22tkPTB33_4y0BBEfyO-44" value="Text" style="edgeLabel;html=1;align=center;verticalAlign=middle;resizable=0;points=[];" parent="X22tkPTB33_4y0BBEfyO-43" vertex="1" connectable="0">
          <mxGeometry x="0.6719" relative="1" as="geometry">
            <mxPoint as="offset" />
          </mxGeometry>
        </mxCell>
        <mxCell id="X22tkPTB33_4y0BBEfyO-45" value="&lt;font style=&quot;font-size: 6px;&quot;&gt;服务器决策&lt;/font&gt;" style="edgeLabel;html=1;align=center;verticalAlign=middle;resizable=0;points=[];" parent="X22tkPTB33_4y0BBEfyO-43" vertex="1" connectable="0">
          <mxGeometry x="0.6778" y="-1" relative="1" as="geometry">
            <mxPoint as="offset" />
          </mxGeometry>
        </mxCell>
        <mxCell id="X22tkPTB33_4y0BBEfyO-29" value="&lt;font style=&quot;font-size: 9px;&quot;&gt;向web服务器请求带if-Modified-Since&lt;/font&gt;" style="rounded=0;whiteSpace=wrap;html=1;" parent="WIyWlLk6GJQsqaUBKTNV-1" vertex="1">
          <mxGeometry x="-1160" y="-930" width="105" height="50" as="geometry" />
        </mxCell>
        <mxCell id="X22tkPTB33_4y0BBEfyO-48" style="edgeStyle=orthogonalEdgeStyle;rounded=0;orthogonalLoop=1;jettySize=auto;html=1;exitX=0.5;exitY=0;exitDx=0;exitDy=0;entryX=1;entryY=0.5;entryDx=0;entryDy=0;" parent="WIyWlLk6GJQsqaUBKTNV-1" source="X22tkPTB33_4y0BBEfyO-30" target="X22tkPTB33_4y0BBEfyO-15" edge="1">
          <mxGeometry relative="1" as="geometry">
            <mxPoint x="-930" y="-1110" as="targetPoint" />
          </mxGeometry>
        </mxCell>
        <mxCell id="X22tkPTB33_4y0BBEfyO-50" value="304" style="edgeLabel;html=1;align=center;verticalAlign=middle;resizable=0;points=[];" parent="X22tkPTB33_4y0BBEfyO-48" vertex="1" connectable="0">
          <mxGeometry x="0.1381" y="3" relative="1" as="geometry">
            <mxPoint as="offset" />
          </mxGeometry>
        </mxCell>
        <mxCell id="X22tkPTB33_4y0BBEfyO-52" style="edgeStyle=orthogonalEdgeStyle;rounded=0;orthogonalLoop=1;jettySize=auto;html=1;exitX=0.5;exitY=1;exitDx=0;exitDy=0;entryX=1;entryY=0.5;entryDx=0;entryDy=0;" parent="WIyWlLk6GJQsqaUBKTNV-1" source="X22tkPTB33_4y0BBEfyO-30" target="X22tkPTB33_4y0BBEfyO-22" edge="1">
          <mxGeometry relative="1" as="geometry">
            <mxPoint x="-990" y="-780" as="targetPoint" />
          </mxGeometry>
        </mxCell>
        <mxCell id="X22tkPTB33_4y0BBEfyO-30" value="200or 304?" style="rhombus;whiteSpace=wrap;html=1;" parent="WIyWlLk6GJQsqaUBKTNV-1" vertex="1">
          <mxGeometry x="-970" y="-1010" width="80" height="80" as="geometry" />
        </mxCell>
        <mxCell id="X22tkPTB33_4y0BBEfyO-38" style="edgeStyle=orthogonalEdgeStyle;rounded=0;orthogonalLoop=1;jettySize=auto;html=1;exitX=1;exitY=0.5;exitDx=0;exitDy=0;entryX=0.027;entryY=0.659;entryDx=0;entryDy=0;entryPerimeter=0;" parent="WIyWlLk6GJQsqaUBKTNV-1" source="X22tkPTB33_4y0BBEfyO-24" target="X22tkPTB33_4y0BBEfyO-26" edge="1">
          <mxGeometry relative="1" as="geometry" />
        </mxCell>
        <mxCell id="X22tkPTB33_4y0BBEfyO-39" value="是" style="edgeLabel;html=1;align=center;verticalAlign=middle;resizable=0;points=[];" parent="X22tkPTB33_4y0BBEfyO-38" vertex="1" connectable="0">
          <mxGeometry x="-0.2141" y="-1" relative="1" as="geometry">
            <mxPoint as="offset" />
          </mxGeometry>
        </mxCell>
      </root>
    </mxGraphModel>
  </diagram>
  <diagram id="0qkCsdOJDcHopmpM72lL" name="第 2 页">
    <mxGraphModel dx="833" dy="729" grid="1" gridSize="10" guides="1" tooltips="1" connect="1" arrows="1" fold="1" page="1" pageScale="1" pageWidth="827" pageHeight="1169" math="0" shadow="0">
      <root>
        <mxCell id="0" />
        <mxCell id="1" parent="0" />
        <mxCell id="-tptMRcluInNrQ8iG2Wr-5" value="concreteComponent" style="swimlane;fontStyle=1;align=center;verticalAlign=top;childLayout=stackLayout;horizontal=1;startSize=26;horizontalStack=0;resizeParent=1;resizeParentMax=0;resizeLast=0;collapsible=1;marginBottom=0;whiteSpace=wrap;html=1;" vertex="1" parent="1">
          <mxGeometry x="50" y="260" width="160" height="104" as="geometry" />
        </mxCell>
        <mxCell id="-tptMRcluInNrQ8iG2Wr-7" value="" style="line;strokeWidth=1;fillColor=none;align=left;verticalAlign=middle;spacingTop=-1;spacingLeft=3;spacingRight=3;rotatable=0;labelPosition=right;points=[];portConstraint=eastwest;strokeColor=inherit;" vertex="1" parent="-tptMRcluInNrQ8iG2Wr-5">
          <mxGeometry y="26" width="160" height="8" as="geometry" />
        </mxCell>
        <mxCell id="-tptMRcluInNrQ8iG2Wr-8" value="&lt;div&gt;+ talk() : void&lt;/div&gt;&lt;div&gt;+ sing() : void&lt;/div&gt;&lt;div&gt;+ playMusic() : void&lt;/div&gt;" style="text;strokeColor=none;fillColor=none;align=left;verticalAlign=top;spacingLeft=4;spacingRight=4;overflow=hidden;rotatable=0;points=[[0,0.5],[1,0.5]];portConstraint=eastwest;whiteSpace=wrap;html=1;" vertex="1" parent="-tptMRcluInNrQ8iG2Wr-5">
          <mxGeometry y="34" width="160" height="70" as="geometry" />
        </mxCell>
        <mxCell id="-tptMRcluInNrQ8iG2Wr-11" value="&lt;p style=&quot;margin:0px;margin-top:4px;text-align:center;&quot;&gt;&lt;i&gt;&amp;lt;&amp;lt;Interface&amp;gt;&amp;gt;&lt;/i&gt;&lt;br&gt;&lt;b&gt;component&lt;/b&gt;&lt;/p&gt;&lt;p style=&quot;margin:0px;margin-left:4px;&quot;&gt;&lt;br&gt;&lt;/p&gt;&lt;hr size=&quot;1&quot; style=&quot;border-style:solid;&quot;&gt;&lt;p style=&quot;margin:0px;margin-left:4px;&quot;&gt;+ talk( ): void&lt;br&gt;&lt;/p&gt;&lt;p style=&quot;margin:0px;margin-left:4px;&quot;&gt;+ sing( ):void&lt;/p&gt;&lt;p style=&quot;margin:0px;margin-left:4px;&quot;&gt;+ playMusic( ):void&lt;/p&gt;&lt;p style=&quot;margin:0px;margin-left:4px;&quot;&gt;&amp;nbsp;&lt;/p&gt;&lt;p style=&quot;margin:0px;margin-left:4px;&quot;&gt;&lt;br&gt;&lt;/p&gt;&lt;p style=&quot;margin:0px;margin-left:4px;&quot;&gt;&lt;br&gt;&lt;/p&gt;" style="verticalAlign=top;align=left;overflow=fill;html=1;whiteSpace=wrap;" vertex="1" parent="1">
          <mxGeometry x="243" y="20" width="171" height="110" as="geometry" />
        </mxCell>
        <mxCell id="-tptMRcluInNrQ8iG2Wr-16" value="&lt;p style=&quot;margin:0px;margin-top:4px;text-align:center;&quot;&gt;&lt;b&gt;Decorator&lt;/b&gt;&lt;/p&gt;&lt;hr size=&quot;1&quot; style=&quot;border-style:solid;&quot;&gt;&lt;p style=&quot;margin: 0px 0px 0px 4px;&quot;&gt;&amp;nbsp;- robot : Robot&lt;/p&gt;&lt;p style=&quot;margin: 0px 0px 0px 4px;&quot;&gt;&amp;nbsp;+ RobotDecorator(robot : Robot)&lt;/p&gt;&lt;hr size=&quot;1&quot; style=&quot;border-style:solid;&quot;&gt;&lt;p style=&quot;margin:0px;margin-left:4px;&quot;&gt;&lt;span style=&quot;background-color: transparent; color: light-dark(rgb(0, 0, 0), rgb(255, 255, 255));&quot;&gt;&amp;nbsp;+ talk() : void&lt;/span&gt;&lt;br&gt;&lt;/p&gt;&lt;p style=&quot;margin:0px;margin-left:4px;&quot;&gt;+ sing() : void&lt;/p&gt;&lt;p style=&quot;margin:0px;margin-left:4px;&quot;&gt;+ playMusic() : void&lt;/p&gt;" style="verticalAlign=top;align=left;overflow=fill;html=1;whiteSpace=wrap;" vertex="1" parent="1">
          <mxGeometry x="290" y="210" width="190" height="150" as="geometry" />
        </mxCell>
        <mxCell id="-tptMRcluInNrQ8iG2Wr-17" value="ConcreteDecorator1" style="swimlane;fontStyle=1;align=center;verticalAlign=top;childLayout=stackLayout;horizontal=1;startSize=26;horizontalStack=0;resizeParent=1;resizeParentMax=0;resizeLast=0;collapsible=1;marginBottom=0;whiteSpace=wrap;html=1;" vertex="1" parent="1">
          <mxGeometry x="90" y="470" width="240" height="110" as="geometry" />
        </mxCell>
        <mxCell id="-tptMRcluInNrQ8iG2Wr-18" value="+ SweepFloorDecorator(robot : Robot)" style="text;strokeColor=none;fillColor=none;align=left;verticalAlign=top;spacingLeft=4;spacingRight=4;overflow=hidden;rotatable=0;points=[[0,0.5],[1,0.5]];portConstraint=eastwest;whiteSpace=wrap;html=1;" vertex="1" parent="-tptMRcluInNrQ8iG2Wr-17">
          <mxGeometry y="26" width="240" height="26" as="geometry" />
        </mxCell>
        <mxCell id="-tptMRcluInNrQ8iG2Wr-37" value="" style="line;strokeWidth=1;fillColor=none;align=left;verticalAlign=middle;spacingTop=-1;spacingLeft=3;spacingRight=3;rotatable=0;labelPosition=right;points=[];portConstraint=eastwest;strokeColor=inherit;" vertex="1" parent="-tptMRcluInNrQ8iG2Wr-17">
          <mxGeometry y="52" width="240" height="8" as="geometry" />
        </mxCell>
        <mxCell id="-tptMRcluInNrQ8iG2Wr-20" value="&lt;div&gt;&lt;span style=&quot;background-color: transparent; color: light-dark(rgb(0, 0, 0), rgb(255, 255, 255));&quot;&gt;+ sweepFloor() : void&lt;/span&gt;&lt;br&gt;&lt;/div&gt;" style="text;strokeColor=none;fillColor=none;align=left;verticalAlign=top;spacingLeft=4;spacingRight=4;overflow=hidden;rotatable=0;points=[[0,0.5],[1,0.5]];portConstraint=eastwest;whiteSpace=wrap;html=1;" vertex="1" parent="-tptMRcluInNrQ8iG2Wr-17">
          <mxGeometry y="60" width="240" height="50" as="geometry" />
        </mxCell>
        <mxCell id="-tptMRcluInNrQ8iG2Wr-21" value="ConcreteDecorator" style="swimlane;fontStyle=1;align=center;verticalAlign=top;childLayout=stackLayout;horizontal=1;startSize=26;horizontalStack=0;resizeParent=1;resizeParentMax=0;resizeLast=0;collapsible=1;marginBottom=0;whiteSpace=wrap;html=1;" vertex="1" parent="1">
          <mxGeometry x="450" y="486" width="260" height="86" as="geometry" />
        </mxCell>
        <mxCell id="-tptMRcluInNrQ8iG2Wr-22" value="&lt;div&gt;+ DanceDecorator(robot : Robot)&lt;/div&gt;&lt;div&gt;&lt;br&gt;&lt;/div&gt;" style="text;strokeColor=none;fillColor=none;align=left;verticalAlign=top;spacingLeft=4;spacingRight=4;overflow=hidden;rotatable=0;points=[[0,0.5],[1,0.5]];portConstraint=eastwest;whiteSpace=wrap;html=1;" vertex="1" parent="-tptMRcluInNrQ8iG2Wr-21">
          <mxGeometry y="26" width="260" height="26" as="geometry" />
        </mxCell>
        <mxCell id="-tptMRcluInNrQ8iG2Wr-23" value="" style="line;strokeWidth=1;fillColor=none;align=left;verticalAlign=middle;spacingTop=-1;spacingLeft=3;spacingRight=3;rotatable=0;labelPosition=right;points=[];portConstraint=eastwest;strokeColor=inherit;" vertex="1" parent="-tptMRcluInNrQ8iG2Wr-21">
          <mxGeometry y="52" width="260" height="8" as="geometry" />
        </mxCell>
        <mxCell id="-tptMRcluInNrQ8iG2Wr-24" value="+ dance() : void" style="text;strokeColor=none;fillColor=none;align=left;verticalAlign=top;spacingLeft=4;spacingRight=4;overflow=hidden;rotatable=0;points=[[0,0.5],[1,0.5]];portConstraint=eastwest;whiteSpace=wrap;html=1;" vertex="1" parent="-tptMRcluInNrQ8iG2Wr-21">
          <mxGeometry y="60" width="260" height="26" as="geometry" />
        </mxCell>
        <mxCell id="-tptMRcluInNrQ8iG2Wr-31" value="" style="endArrow=block;dashed=1;endFill=0;endSize=12;html=1;rounded=0;entryX=0.601;entryY=1.03;entryDx=0;entryDy=0;exitX=0.5;exitY=0;exitDx=0;exitDy=0;entryPerimeter=0;" edge="1" parent="1" source="-tptMRcluInNrQ8iG2Wr-16" target="-tptMRcluInNrQ8iG2Wr-11">
          <mxGeometry width="160" relative="1" as="geometry">
            <mxPoint x="431" y="250" as="sourcePoint" />
            <mxPoint x="346.5" y="140" as="targetPoint" />
          </mxGeometry>
        </mxCell>
        <mxCell id="-tptMRcluInNrQ8iG2Wr-32" value="" style="endArrow=block;dashed=1;endFill=0;endSize=12;html=1;rounded=0;entryX=0.351;entryY=1;entryDx=0;entryDy=0;exitX=0.455;exitY=-0.034;exitDx=0;exitDy=0;exitPerimeter=0;entryPerimeter=0;" edge="1" parent="1" source="-tptMRcluInNrQ8iG2Wr-5" target="-tptMRcluInNrQ8iG2Wr-11">
          <mxGeometry width="160" relative="1" as="geometry">
            <mxPoint x="130" y="210" as="sourcePoint" />
            <mxPoint x="220" y="220" as="targetPoint" />
          </mxGeometry>
        </mxCell>
        <mxCell id="-tptMRcluInNrQ8iG2Wr-33" value="" style="endArrow=diamondThin;endFill=0;endSize=24;html=1;rounded=0;exitX=1.016;exitY=0.618;exitDx=0;exitDy=0;exitPerimeter=0;entryX=1;entryY=0.5;entryDx=0;entryDy=0;" edge="1" parent="1" source="-tptMRcluInNrQ8iG2Wr-11" target="-tptMRcluInNrQ8iG2Wr-16">
          <mxGeometry width="160" relative="1" as="geometry">
            <mxPoint x="300" y="330" as="sourcePoint" />
            <mxPoint x="460" y="330" as="targetPoint" />
            <Array as="points">
              <mxPoint x="600" y="88" />
              <mxPoint x="600" y="285" />
            </Array>
          </mxGeometry>
        </mxCell>
        <mxCell id="-tptMRcluInNrQ8iG2Wr-35" value="Extends" style="endArrow=block;endSize=16;endFill=0;html=1;rounded=0;exitX=0.438;exitY=0;exitDx=0;exitDy=0;exitPerimeter=0;entryX=0.33;entryY=1.027;entryDx=0;entryDy=0;entryPerimeter=0;" edge="1" parent="1" source="-tptMRcluInNrQ8iG2Wr-17" target="-tptMRcluInNrQ8iG2Wr-16">
          <mxGeometry width="160" relative="1" as="geometry">
            <mxPoint x="300" y="330" as="sourcePoint" />
            <mxPoint x="460" y="330" as="targetPoint" />
          </mxGeometry>
        </mxCell>
        <mxCell id="-tptMRcluInNrQ8iG2Wr-36" value="Extends" style="endArrow=block;endSize=16;endFill=0;html=1;rounded=0;exitX=0.5;exitY=0;exitDx=0;exitDy=0;entryX=0.679;entryY=1.016;entryDx=0;entryDy=0;entryPerimeter=0;" edge="1" parent="1" source="-tptMRcluInNrQ8iG2Wr-21" target="-tptMRcluInNrQ8iG2Wr-16">
          <mxGeometry width="160" relative="1" as="geometry">
            <mxPoint x="550" y="440" as="sourcePoint" />
            <mxPoint x="430" y="370" as="targetPoint" />
            <Array as="points">
              <mxPoint x="460" y="390" />
            </Array>
          </mxGeometry>
        </mxCell>
      </root>
    </mxGraphModel>
  </diagram>
</mxfile>
